<svg xmlns="http://www.w3.org/2000/svg" width="1100" height="360" viewBox="0 0 1100 360">
<rect width="100%" height="100%" fill="#f7f3e8"/>
<text x="45" y="38" font-family="sans-serif" font-size="22" font-weight="700" fill="#17202a">Legal out-of-order completion across distinct AXI IDs</text>
<text x="45" y="64" font-family="sans-serif" font-size="13" fill="#46525c">Requests accepted 1,2,3,4; target returns 2,4,3,1 without read-beat interleaving.</text>
<line x1="180.0" y1="82" x2="180.0" y2="300" stroke="#ded8ca"/>
<text x="173.0" y="325" font-family="monospace" font-size="11" fill="#59636b">9</text>
<line x1="224.7" y1="82" x2="224.7" y2="300" stroke="#ded8ca"/>
<text x="217.7" y="325" font-family="monospace" font-size="11" fill="#59636b">10</text>
<line x1="269.5" y1="82" x2="269.5" y2="300" stroke="#ded8ca"/>
<text x="262.5" y="325" font-family="monospace" font-size="11" fill="#59636b">11</text>
<line x1="314.2" y1="82" x2="314.2" y2="300" stroke="#ded8ca"/>
<text x="307.2" y="325" font-family="monospace" font-size="11" fill="#59636b">12</text>
<line x1="358.9" y1="82" x2="358.9" y2="300" stroke="#ded8ca"/>
<text x="351.9" y="325" font-family="monospace" font-size="11" fill="#59636b">13</text>
<line x1="403.7" y1="82" x2="403.7" y2="300" stroke="#ded8ca"/>
<text x="396.7" y="325" font-family="monospace" font-size="11" fill="#59636b">14</text>
<line x1="448.4" y1="82" x2="448.4" y2="300" stroke="#ded8ca"/>
<text x="441.4" y="325" font-family="monospace" font-size="11" fill="#59636b">15</text>
<line x1="493.2" y1="82" x2="493.2" y2="300" stroke="#ded8ca"/>
<text x="486.2" y="325" font-family="monospace" font-size="11" fill="#59636b">16</text>
<line x1="537.9" y1="82" x2="537.9" y2="300" stroke="#ded8ca"/>
<text x="530.9" y="325" font-family="monospace" font-size="11" fill="#59636b">17</text>
<line x1="582.6" y1="82" x2="582.6" y2="300" stroke="#ded8ca"/>
<text x="575.6" y="325" font-family="monospace" font-size="11" fill="#59636b">18</text>
<line x1="627.4" y1="82" x2="627.4" y2="300" stroke="#ded8ca"/>
<text x="620.4" y="325" font-family="monospace" font-size="11" fill="#59636b">19</text>
<line x1="672.1" y1="82" x2="672.1" y2="300" stroke="#ded8ca"/>
<text x="665.1" y="325" font-family="monospace" font-size="11" fill="#59636b">20</text>
<line x1="716.8" y1="82" x2="716.8" y2="300" stroke="#ded8ca"/>
<text x="709.8" y="325" font-family="monospace" font-size="11" fill="#59636b">21</text>
<line x1="761.6" y1="82" x2="761.6" y2="300" stroke="#ded8ca"/>
<text x="754.6" y="325" font-family="monospace" font-size="11" fill="#59636b">22</text>
<line x1="806.3" y1="82" x2="806.3" y2="300" stroke="#ded8ca"/>
<text x="799.3" y="325" font-family="monospace" font-size="11" fill="#59636b">23</text>
<line x1="851.1" y1="82" x2="851.1" y2="300" stroke="#ded8ca"/>
<text x="844.1" y="325" font-family="monospace" font-size="11" fill="#59636b">24</text>
<line x1="895.8" y1="82" x2="895.8" y2="300" stroke="#ded8ca"/>
<text x="888.8" y="325" font-family="monospace" font-size="11" fill="#59636b">25</text>
<line x1="940.5" y1="82" x2="940.5" y2="300" stroke="#ded8ca"/>
<text x="933.5" y="325" font-family="monospace" font-size="11" fill="#59636b">26</text>
<line x1="985.3" y1="82" x2="985.3" y2="300" stroke="#ded8ca"/>
<text x="978.3" y="325" font-family="monospace" font-size="11" fill="#59636b">27</text>
<line x1="1030.0" y1="82" x2="1030.0" y2="300" stroke="#ded8ca"/>
<text x="1023.0" y="325" font-family="monospace" font-size="11" fill="#59636b">28</text>
<text x="45" y="120" font-family="sans-serif" font-size="14" font-weight="600">AR accepted</text>
<line x1="180" y1="115" x2="1030" y2="115" stroke="#7b8287" stroke-width="2"/>
<circle cx="224.7" cy="115" r="17" fill="#177e89"/>
<text x="220.7" y="120" font-family="monospace" font-size="13" font-weight="700" fill="white">1</text>
<circle cx="314.2" cy="115" r="17" fill="#177e89"/>
<text x="310.2" y="120" font-family="monospace" font-size="13" font-weight="700" fill="white">2</text>
<circle cx="403.7" cy="115" r="17" fill="#177e89"/>
<text x="399.7" y="120" font-family="monospace" font-size="13" font-weight="700" fill="white">3</text>
<circle cx="493.2" cy="115" r="17" fill="#177e89"/>
<text x="489.2" y="120" font-family="monospace" font-size="13" font-weight="700" fill="white">4</text>
<text x="45" y="198" font-family="sans-serif" font-size="14" font-weight="600">Target schedule</text>
<line x1="180" y1="193" x2="1030" y2="193" stroke="#7b8287" stroke-width="2"/>
<circle cx="358.9" cy="193" r="17" fill="#d97706"/>
<text x="354.9" y="198" font-family="monospace" font-size="13" font-weight="700" fill="white">2</text>
<circle cx="806.3" cy="193" r="17" fill="#d97706"/>
<text x="802.3" y="198" font-family="monospace" font-size="13" font-weight="700" fill="white">4</text>
<circle cx="895.8" cy="193" r="17" fill="#d97706"/>
<text x="891.8" y="198" font-family="monospace" font-size="13" font-weight="700" fill="white">3</text>
<circle cx="985.3" cy="193" r="17" fill="#d97706"/>
<text x="981.3" y="198" font-family="monospace" font-size="13" font-weight="700" fill="white">1</text>
<text x="45" y="276" font-family="sans-serif" font-size="14" font-weight="600">R completion</text>
<line x1="180" y1="271" x2="1030" y2="271" stroke="#7b8287" stroke-width="2"/>
<circle cx="716.8" cy="271" r="17" fill="#26734d"/>
<text x="712.8" y="276" font-family="monospace" font-size="13" font-weight="700" fill="white">2</text>
<circle cx="806.3" cy="271" r="17" fill="#26734d"/>
<text x="802.3" y="276" font-family="monospace" font-size="13" font-weight="700" fill="white">4</text>
<circle cx="895.8" cy="271" r="17" fill="#26734d"/>
<text x="891.8" y="276" font-family="monospace" font-size="13" font-weight="700" fill="white">3</text>
<circle cx="985.3" cy="271" r="17" fill="#26734d"/>
<text x="981.3" y="276" font-family="monospace" font-size="13" font-weight="700" fill="white">1</text>
<text x="440" y="350" font-family="sans-serif" font-size="12" fill="#46525c">Verilator trace cycles; circle labels are original initiator IDs.</text>
</svg>
