<svg xmlns="http://www.w3.org/2000/svg" width="900" height="430" viewBox="0 0 900 430">
<rect width="100%" height="100%" fill="#f7f3e8"/>
<text x="50" y="38" font-family="sans-serif" font-size="22" font-weight="700" fill="#17202a">QoS fairness under sustained four-master contention</text>
<line x1="70" y1="360" x2="850" y2="360" stroke="#334"/><line x1="70" y1="70" x2="70" y2="360" stroke="#334"/>
<text x="80.0" y="386" font-family="sans-serif" font-size="13">0%</text>
<text x="317.5" y="386" font-family="sans-serif" font-size="13">25%</text>
<text x="555.0" y="386" font-family="sans-serif" font-size="13">50%</text>
<text x="792.5" y="386" font-family="sans-serif" font-size="13">75%</text>
<line x1="70" y1="360.0" x2="850" y2="360.0" stroke="#d5d0c5"/><text x="35" y="365.0" font-family="sans-serif" font-size="12">0.6</text>
<line x1="70" y1="287.5" x2="850" y2="287.5" stroke="#d5d0c5"/><text x="35" y="292.5" font-family="sans-serif" font-size="12">0.7</text>
<line x1="70" y1="214.99999999999994" x2="850" y2="214.99999999999994" stroke="#d5d0c5"/><text x="35" y="219.99999999999994" font-family="sans-serif" font-size="12">0.8</text>
<line x1="70" y1="142.49999999999997" x2="850" y2="142.49999999999997" stroke="#d5d0c5"/><text x="35" y="147.49999999999997" font-family="sans-serif" font-size="12">0.9</text>
<line x1="70" y1="70.0" x2="850" y2="70.0" stroke="#d5d0c5"/><text x="35" y="75.0" font-family="sans-serif" font-size="12">1.0</text>
<polyline fill="none" stroke="#1976a3" stroke-width="4" points="90.0,70.02175 327.5,70.02175 565.0,70.02175 802.5,70.0435"/>
<circle cx="90.0" cy="70.02175" r="5" fill="#1976a3"/>
<circle cx="327.5" cy="70.02175" r="5" fill="#1976a3"/>
<circle cx="565.0" cy="70.02175" r="5" fill="#1976a3"/>
<circle cx="802.5" cy="70.0435" r="5" fill="#1976a3"/>
<rect x="650" y="85" width="18" height="5" fill="#1976a3"/><text x="680" y="92" font-family="sans-serif" font-size="13">equal qos</text>
<polyline fill="none" stroke="#d97706" stroke-width="4" points="90.0,122.55525000000003 327.5,130.86374999999998 565.0,231.17475 802.5,234.79975000000002"/>
<circle cx="90.0" cy="122.55525000000003" r="5" fill="#d97706"/>
<circle cx="327.5" cy="130.86374999999998" r="5" fill="#d97706"/>
<circle cx="565.0" cy="231.17475" r="5" fill="#d97706"/>
<circle cx="802.5" cy="234.79975000000002" r="5" fill="#d97706"/>
<rect x="650" y="113" width="18" height="5" fill="#d97706"/><text x="680" y="120" font-family="sans-serif" font-size="13">mixed qos</text>
<polyline fill="none" stroke="#26734d" stroke-width="4" points="90.0,79.93975 327.5,79.93975 565.0,79.95425 802.5,80.33850000000001"/>
<circle cx="90.0" cy="79.93975" r="5" fill="#26734d"/>
<circle cx="327.5" cy="79.93975" r="5" fill="#26734d"/>
<circle cx="565.0" cy="79.95425" r="5" fill="#26734d"/>
<circle cx="802.5" cy="80.33850000000001" r="5" fill="#26734d"/>
<rect x="650" y="141" width="18" height="5" fill="#26734d"/><text x="680" y="148" font-family="sans-serif" font-size="13">starvation override</text>
<text x="390" y="414" font-family="sans-serif" font-size="13">Target backpressure duty cycle</text>
<text transform="translate(18 280) rotate(-90)" font-family="sans-serif" font-size="13">Jain fairness index</text></svg>